<svg width="148" height="200" viewBox="0 0 148 200" fill="none" xmlns="http://www.w3.org/2000/svg">
<path fill-rule="evenodd" clip-rule="evenodd" d="M43.3763 86.2315C42.3359 86.6352 41.4466 86.9717 40.5069 87.3418C40.2552 86.8707 40.037 86.5006 39.8189 86.1137C37.8892 82.8166 34.4157 81.1343 30.5899 81.6726C27.1835 82.1437 24.1128 84.9362 23.3577 88.4184C22.6697 91.5642 23.3241 94.4408 25.6398 96.7623C27.8212 98.966 30.4556 100.514 33.3586 101.573C37.1509 102.953 40.574 104.921 43.5105 107.714C45.4738 109.564 47.0176 111.7 47.9405 114.257C48.0076 114.426 48.3264 115.216 48.4103 115.687C48.4103 103.811 48.4103 91.1436 48.4103 79.2166C53.1255 79.1661 48.6788 79.2166 53.1255 79.1661C74.1845 106.25 52.857 79.1661 73.916 106.25C94.8743 79.0988 72.9427 106.25 94.8743 79.0988C95.9817 79.0988 98.0457 79.1157 99.2371 79.1157C99.2371 98.3267 99.2371 117.386 99.2371 136.497C98.1967 136.497 97.2402 136.497 96.116 136.497C96.116 118.682 96.116 100.917 96.116 83.1362C96.0153 83.1025 77.6579 106.822 73.916 111.734C66.516 102.044 51.7831 83.0016 51.6992 83.0353C51.6992 100.8 51.6992 118.581 51.6992 136.446C50.5917 136.446 49.6017 136.446 48.4942 136.446C48.4942 132.846 48.4942 129.28 48.4942 125.697C44.1985 134.629 37.4697 138.852 27.5695 136.665C21.3441 135.285 15.9745 129.027 15.32 122.971C16.2094 122.635 17.1491 122.298 18.1726 121.912C18.2733 122.265 18.374 122.5 18.4076 122.736C19.6996 129.919 26.5794 134.932 33.7949 133.94C39.8189 133.115 44.5509 128.741 45.6248 122.786C46.3967 118.547 45.5073 114.644 42.638 111.347C39.8692 108.168 36.4126 105.981 32.486 104.534C29.0461 103.272 25.8243 101.641 23.2402 98.9491C17.384 92.8595 19.4144 82.7661 27.1667 79.4016C32.5867 77.0465 39.0638 79.0147 42.2352 84.0109C42.6547 84.6502 42.9568 85.3904 43.3763 86.2315Z" fill="black"/>
<path fill-rule="evenodd" clip-rule="evenodd" d="M101.133 79.0989C101.654 79.0989 110.211 79.1325 114.021 79.0821C119.44 79.0148 123.954 81.1176 127.596 85.0203C137.06 95.1137 132.764 111.549 119.608 115.788C119.306 115.889 119.021 115.99 118.551 116.158C119.34 117.571 130.666 134.999 131.623 136.48C130.213 136.48 129.022 136.48 127.73 136.48C127.512 136.16 119.44 123.644 115.715 117.773C115.212 116.966 114.675 116.613 113.702 116.629C111.05 116.697 104.859 116.697 104.305 116.714C104.305 123.291 104.305 129.801 104.305 136.429C103.197 136.429 102.224 136.429 101.133 136.429C101.133 117.386 101.133 98.3268 101.133 79.0989ZM104.389 82.4129C104.473 113.315 104.389 82.4129 104.473 113.315C108.215 113.315 111.973 113.332 115.732 113.299C116.437 113.299 117.125 113.08 117.813 112.929C122.897 111.768 128.67 106.721 129.408 99.3529C130.163 91.6315 124.659 84.0446 117.024 82.7325C115.329 82.4465 113.584 82.4802 111.873 82.4465C109.406 82.3792 106.923 82.4129 104.389 82.4129Z" fill="black"/>
<path d="M148 148.81H0V0H148V148.81ZM2.01361 146.791H146.003V2.01868H2.01361V146.791Z" fill="black"/>
<path d="M11.0741 157.642C12.0305 158.769 12.5171 160.333 12.5171 162.335V163.025H9.81555V162.184C9.81555 159.745 8.8423 158.533 6.89582 158.533C4.94933 158.533 3.97609 159.745 3.97609 162.15C3.97609 163.361 4.31169 164.388 4.96611 165.229C5.62053 166.07 6.61056 166.995 7.9194 168.021C8.95976 168.896 9.78199 169.636 10.3693 170.242C10.9566 170.847 11.4768 171.604 11.8963 172.513C12.3158 173.421 12.5339 174.447 12.5339 175.608C12.5339 177.61 12.0473 179.174 11.0741 180.301C10.1008 181.429 8.6745 182 6.77836 182C4.88221 182 3.45591 181.429 2.49945 180.301C1.54298 179.174 1.05636 177.61 1.05636 175.608V174.144H3.70761V175.743C3.70761 176.903 3.95931 177.812 4.44593 178.451C4.94933 179.09 5.68766 179.393 6.67768 179.393C7.6677 179.393 8.4228 179.073 8.90942 178.451C9.41283 177.812 9.64775 176.92 9.64775 175.743C9.64775 174.548 9.32893 173.539 8.69128 172.715C8.05364 171.89 7.06362 170.948 5.75478 169.905C4.76475 169.081 3.95931 168.358 3.33845 167.735C2.71759 167.113 2.19741 166.356 1.7779 165.431C1.39196 164.539 1.1906 163.513 1.1906 162.335C1.1906 160.317 1.66044 158.752 2.61691 157.625C3.55659 156.498 4.96611 155.943 6.84548 155.943C8.69128 155.943 10.1008 156.515 11.0741 157.642Z" fill="black"/>
<path d="M20.4721 181.749H17.8544L22.7374 156.196H26.8485L31.7315 181.749H28.8956L27.9056 176.601H21.4621L20.4721 181.749ZM27.5029 174.162L24.6335 159.409L21.8312 174.162H27.5029Z" fill="black"/>
<path d="M47.119 157.642C48.0755 158.769 48.5621 160.333 48.5621 162.335V163.025H45.8605V162.184C45.8605 159.745 44.8872 158.533 42.9408 158.533C40.9943 158.533 40.021 159.745 40.021 162.15C40.021 163.361 40.3566 164.388 41.0111 165.229C41.6655 166.07 42.6555 166.995 43.9643 168.021C45.0047 168.896 45.8269 169.636 46.4142 170.242C47.0015 170.847 47.5217 171.604 47.9412 172.513C48.3607 173.421 48.5789 174.447 48.5789 175.608C48.5789 177.61 48.0922 179.174 47.119 180.301C46.1457 181.429 44.7194 182.001 42.8233 182.001C40.9272 182.001 39.5008 181.429 38.5444 180.301C37.5879 179.174 37.1013 177.61 37.1013 175.608V174.145H39.7693V175.743C39.7693 176.903 40.021 177.812 40.5077 178.451C41.0111 179.09 41.7494 179.393 42.7394 179.393C43.7294 179.393 44.4845 179.073 44.9711 178.451C45.4745 177.812 45.7095 176.92 45.7095 175.743C45.7095 174.548 45.3906 173.539 44.753 172.715C44.1154 171.89 43.1253 170.948 41.8165 169.905C40.8265 169.081 40.021 168.358 39.4002 167.735C38.7793 167.113 38.2591 166.356 37.8396 165.431C37.4201 164.522 37.202 163.479 37.202 162.302C37.202 160.283 37.6718 158.718 38.6283 157.591C39.568 156.464 40.9775 155.909 42.8569 155.909C44.7362 155.943 46.1457 156.515 47.119 157.642Z" fill="black"/>
<path d="M58.311 158.803H53.6126V156.212H65.8116V158.803H61.1132V181.765H58.311V158.803Z" fill="black"/>
<path d="M81.2995 157.659C82.2056 158.635 82.6586 160.098 82.6586 162.033V164.119C82.6586 165.532 82.407 166.676 81.8868 167.551C81.3834 168.425 80.5779 169.031 79.4872 169.367C80.6115 169.704 81.4169 170.326 81.9203 171.218C82.4237 172.109 82.6922 173.27 82.6922 174.7V178.67C82.6922 179.377 82.7258 179.965 82.7761 180.436C82.8432 180.907 82.9775 181.345 83.1956 181.732H80.3262C80.1584 181.345 80.041 180.941 79.9571 180.504C79.8899 180.083 79.8396 179.444 79.8396 178.62V174.599C79.8396 173.22 79.5376 172.227 78.9167 171.655C78.2958 171.083 77.3729 170.797 76.1312 170.797H74.1344V181.715H71.2986V156.212H76.9702C78.9503 156.212 80.3933 156.7 81.2995 157.659ZM78.967 167.483C79.5543 166.979 79.8564 166.053 79.8564 164.741V162.302C79.8564 161.141 79.6215 160.267 79.1684 159.678C78.7153 159.089 77.9602 158.803 76.9031 158.803H74.1344V168.257H76.2487C77.4736 168.257 78.363 167.988 78.967 167.483Z" fill="black"/>
<path d="M98.2805 170.074H92.0551V179.158H99.7068V181.749H89.2193V156.212H99.7068V158.803H92.0551V167.534H98.2805V170.074Z" fill="black"/>
<path d="M115.882 157.659C116.788 158.635 117.241 160.098 117.241 162.033V164.119C117.241 165.532 116.989 166.676 116.469 167.551C115.966 168.425 115.16 169.031 114.07 169.367C115.194 169.704 115.999 170.326 116.503 171.218C117.006 172.109 117.274 173.27 117.274 174.7V178.67C117.274 179.377 117.308 179.965 117.358 180.436C117.426 180.907 117.56 181.345 117.778 181.732H114.909C114.741 181.345 114.623 180.941 114.539 180.504C114.472 180.083 114.422 179.444 114.422 178.62V174.599C114.422 173.22 114.12 172.227 113.499 171.655C112.878 171.083 111.955 170.797 110.713 170.797H108.733V181.715H105.881V156.212H111.553C113.533 156.212 114.976 156.7 115.882 157.659ZM113.549 167.483C114.137 166.979 114.439 166.053 114.439 164.741V162.302C114.439 161.141 114.204 160.267 113.751 159.678C113.298 159.089 112.543 158.803 111.485 158.803H108.733V168.257H110.848C112.056 168.257 112.962 167.988 113.549 167.483Z" fill="black"/>
<path d="M126.639 181.749H123.803V156.212H126.639V181.749Z" fill="black"/>
<path d="M135.012 181.749H132.395L137.278 156.196H141.389L146.272 181.749H143.436L142.446 176.601H136.003L135.012 181.749ZM142.043 174.162L139.174 159.409L136.372 174.162H142.043Z" fill="black"/>
<path d="M8.80923 197.847C8.62465 198.116 8.38973 198.368 8.12125 198.637C7.85277 198.89 7.53395 199.125 7.18157 199.327C6.82919 199.529 6.42647 199.68 5.97341 199.815C5.52034 199.933 5.03372 200 4.51354 200C3.97658 200 3.4564 199.933 2.953 199.781C2.43282 199.63 1.97975 199.411 1.56025 199.125C1.14075 198.822 0.821931 198.469 0.55345 198.015C0.30175 197.578 0.167509 197.056 0.167509 196.467V196.417C0.167509 195.828 0.28497 195.307 0.53667 194.852C0.771591 194.398 1.10719 194.011 1.54347 193.708C1.96297 193.406 2.48316 193.17 3.08724 193.002C3.69132 192.834 4.36252 192.766 5.10084 192.766C5.88951 192.766 6.57749 192.817 7.14801 192.901C7.71853 192.985 8.27227 193.103 8.82601 193.254V192.766C8.82601 191.623 8.50719 190.765 7.85277 190.193C7.19835 189.621 6.29223 189.335 5.1344 189.335C4.44642 189.335 3.80878 189.419 3.23826 189.587C2.66774 189.755 2.11399 189.974 1.61059 190.243L1.20787 189.284C1.82873 188.981 2.4496 188.746 3.08724 188.561C3.72488 188.376 4.42964 188.292 5.20152 188.292C6.66139 188.292 7.80243 188.662 8.64143 189.402C9.48043 190.142 9.89994 191.236 9.89994 192.716V199.748H8.80923V197.847ZM8.82601 194.213C8.35617 194.095 7.80243 193.978 7.16479 193.877C6.52715 193.759 5.8056 193.708 5.00016 193.708C3.80878 193.708 2.90266 193.944 2.24823 194.432C1.61059 194.903 1.29177 195.542 1.29177 196.333V196.383C1.29177 196.787 1.37567 197.157 1.56025 197.477C1.74483 197.796 1.97975 198.065 2.2818 198.284C2.58384 198.503 2.93622 198.671 3.32216 198.789C3.72488 198.907 4.1276 198.957 4.56388 198.957C5.1344 198.957 5.68814 198.873 6.19155 198.705C6.71173 198.536 7.16479 198.301 7.55073 197.998C7.93667 197.695 8.25549 197.342 8.47363 196.905C8.70855 196.484 8.80923 196.013 8.80923 195.492V194.213H8.82601Z" fill="black"/>
<path d="M25.3044 199.731V183.598H26.3783V199.731H25.3044Z" fill="black"/>
<path d="M40.7576 197.847C40.573 198.116 40.3381 198.368 40.0696 198.637C39.8011 198.89 39.4823 199.125 39.1299 199.327C38.7775 199.529 38.3748 199.68 37.9218 199.815C37.4687 199.933 36.9821 200 36.4619 200C35.9249 200 35.4047 199.933 34.9013 199.781C34.3812 199.63 33.9281 199.411 33.5086 199.125C33.0891 198.822 32.7703 198.469 32.5018 198.015C32.2501 197.578 32.1159 197.056 32.1159 196.467V196.417C32.1159 195.828 32.2333 195.307 32.485 194.852C32.7199 194.398 33.0555 194.011 33.4918 193.708C33.9113 193.406 34.4315 193.17 35.0356 193.002C35.6397 192.834 36.3109 192.766 37.0492 192.766C37.8379 192.766 38.5258 192.817 39.0964 192.901C39.6669 192.985 40.2206 193.103 40.7744 193.254V192.766C40.7744 191.623 40.4555 190.765 39.8011 190.193C39.1467 189.621 38.2406 189.335 37.0828 189.335C36.3948 189.335 35.7571 189.419 35.1866 189.587C34.6161 189.755 34.0623 189.974 33.5589 190.243L33.1562 189.284C33.7771 188.981 34.3979 188.746 35.0356 188.561C35.6732 188.376 36.378 188.292 37.1499 188.292C38.6097 188.292 39.7508 188.662 40.5898 189.402C41.4288 190.142 41.8483 191.236 41.8483 192.716V199.748H40.7576V197.847ZM40.7744 194.213C40.3045 194.095 39.7508 193.978 39.1131 193.877C38.4755 193.759 37.754 193.708 36.9485 193.708C35.7571 193.708 34.851 193.944 34.1966 194.432C33.5589 194.903 33.2401 195.542 33.2401 196.333V196.383C33.2401 196.787 33.324 197.157 33.5086 197.477C33.6932 197.796 33.9281 198.065 34.2301 198.284C34.5322 198.503 34.8846 198.671 35.2705 198.789C35.6732 198.907 36.076 198.957 36.5122 198.957C37.0828 198.957 37.6365 198.873 38.1399 198.705C38.6601 198.536 39.1131 198.301 39.4991 197.998C39.885 197.695 40.2038 197.342 40.422 196.905C40.6569 196.484 40.7576 196.013 40.7576 195.492V194.213H40.7744Z" fill="black"/>
<path d="M73.0261 199.73V193.035C73.0261 191.807 72.7241 190.865 72.1368 190.192C71.5494 189.519 70.7272 189.183 69.6869 189.183C69.217 189.183 68.764 189.267 68.3277 189.452C67.8914 189.637 67.5222 189.889 67.1866 190.226C66.8678 190.562 66.5993 190.983 66.4148 191.471C66.2302 191.958 66.1295 192.53 66.1295 193.153V199.714H65.0556V192.951C65.0556 191.773 64.7535 190.848 64.1662 190.175C63.5789 189.502 62.7735 189.166 61.7667 189.166C61.2633 189.166 60.7934 189.267 60.3572 189.469C59.9209 189.671 59.5349 189.957 59.2161 190.327C58.8973 190.697 58.6456 191.117 58.461 191.605C58.2764 192.093 58.1925 192.615 58.1925 193.203V199.697H57.1186V188.426H58.1925V190.444C58.3771 190.142 58.5785 189.872 58.7966 189.587C59.0315 189.317 59.2832 189.065 59.5853 188.863C59.8705 188.644 60.2229 188.476 60.6089 188.358C60.9948 188.241 61.4479 188.173 61.9345 188.173C62.4211 188.173 62.8574 188.241 63.2601 188.375C63.6628 188.51 64.0152 188.678 64.334 188.914C64.6361 189.132 64.9046 189.385 65.1395 189.687C65.3744 189.99 65.559 190.293 65.7268 190.613C65.9114 190.31 66.1127 190.007 66.3644 189.704C66.6161 189.418 66.9014 189.149 67.237 188.914C67.5726 188.678 67.9417 188.51 68.3612 188.375C68.7807 188.241 69.2506 188.173 69.7875 188.173C70.442 188.173 71.0461 188.291 71.583 188.51C72.12 188.745 72.573 189.048 72.9422 189.452C73.3114 189.856 73.5966 190.344 73.798 190.932C73.9993 191.521 74.1 192.16 74.1 192.867V199.697H73.0261V199.73Z" fill="black"/>
<path d="M81.3151 196.4C81.5836 196.938 81.9192 197.409 82.3051 197.779C82.7078 198.166 83.1609 198.452 83.6643 198.654C84.1677 198.856 84.7047 198.957 85.2584 198.957C86.1477 198.957 86.8861 198.788 87.5069 198.452C88.111 198.115 88.6647 197.695 89.1346 197.19L89.8897 197.846C89.3192 198.469 88.6647 198.973 87.9432 199.377C87.2217 199.781 86.3155 199.983 85.2416 199.983C84.5033 199.983 83.7985 199.848 83.1273 199.562C82.4561 199.276 81.8688 198.889 81.3654 198.368C80.862 197.846 80.4593 197.241 80.1573 196.517C79.8552 195.794 79.721 194.986 79.721 194.112V194.061C79.721 193.254 79.8552 192.497 80.1237 191.773C80.3922 191.067 80.7781 190.444 81.248 189.906C81.7178 189.368 82.2883 188.964 82.926 188.644C83.5804 188.342 84.2852 188.173 85.0403 188.173C85.8289 188.173 86.5505 188.325 87.1713 188.628C87.809 188.93 88.3459 189.351 88.799 189.872C89.2521 190.411 89.5877 191.033 89.8394 191.74C90.0743 192.446 90.2085 193.237 90.2085 194.078V194.129C90.2085 194.196 90.2085 194.263 90.2085 194.33C90.2085 194.381 90.2085 194.448 90.1917 194.532H80.862C80.8956 195.239 81.0466 195.861 81.3151 196.4ZM89.0507 193.557C89.0004 192.985 88.8997 192.429 88.7151 191.908C88.5305 191.386 88.2788 190.915 87.9432 190.512C87.6076 190.108 87.2049 189.788 86.7183 189.536C86.2316 189.301 85.6611 189.166 85.0235 189.166C84.4697 189.166 83.9328 189.284 83.4462 189.502C82.9595 189.721 82.54 190.024 82.1709 190.428C81.8017 190.815 81.5164 191.286 81.2815 191.824C81.0466 192.362 80.9124 192.934 80.862 193.557H89.0507Z" fill="black"/>
<path d="M105.109 199.731V197.208C104.858 197.578 104.589 197.931 104.287 198.267C103.985 198.604 103.649 198.907 103.28 199.159C102.911 199.411 102.492 199.613 102.022 199.764C101.552 199.916 101.049 200 100.495 200C99.8236 200 99.1524 199.865 98.498 199.596C97.8436 199.327 97.2563 198.94 96.7529 198.452C96.2327 197.948 95.83 197.342 95.5111 196.602C95.1923 195.879 95.0413 195.054 95.0413 194.146V194.095C95.0413 193.187 95.1923 192.363 95.5111 191.639C95.83 190.916 96.2495 190.294 96.7529 189.789C97.273 189.284 97.8436 188.897 98.498 188.611C99.1524 188.342 99.8236 188.208 100.495 188.208C101.049 188.208 101.569 188.275 102.039 188.426C102.508 188.578 102.928 188.78 103.314 189.015C103.683 189.267 104.019 189.553 104.321 189.873C104.623 190.193 104.891 190.529 105.126 190.882V183.598H106.2V199.731H105.109ZM105.176 194.062C105.176 193.338 105.042 192.682 104.791 192.077C104.539 191.488 104.186 190.966 103.767 190.546C103.347 190.125 102.844 189.806 102.29 189.57C101.737 189.335 101.166 189.217 100.579 189.217C99.9579 189.217 99.3873 189.335 98.8504 189.553C98.3134 189.772 97.8436 190.092 97.4408 190.495C97.0381 190.916 96.7361 191.421 96.5012 192.009C96.2662 192.598 96.1656 193.288 96.1656 194.028V194.079C96.1656 194.819 96.283 195.492 96.5179 196.097C96.7529 196.703 97.0717 197.207 97.4744 197.628C97.8771 198.049 98.347 198.368 98.8839 198.604C99.4209 198.839 99.9914 198.94 100.579 198.94C101.166 198.94 101.737 198.822 102.29 198.587C102.844 198.351 103.331 198.015 103.767 197.594C104.186 197.174 104.539 196.652 104.791 196.064C105.042 195.475 105.176 194.819 105.176 194.095V194.062Z" fill="black"/>
<path d="M112.728 185.516V184.035H114.071V185.516H112.728ZM112.846 199.731V188.46H113.92V199.731H112.846Z" fill="black"/>
<path d="M129.962 199.731V197.208C129.71 197.578 129.442 197.931 129.14 198.267C128.838 198.604 128.502 198.907 128.133 199.159C127.764 199.411 127.344 199.613 126.874 199.764C126.404 199.916 125.901 200 125.347 200C124.676 200 124.005 199.865 123.35 199.596C122.696 199.327 122.109 198.94 121.605 198.452C121.085 197.948 120.682 197.342 120.364 196.602C120.045 195.879 119.894 195.054 119.894 194.146V194.095C119.894 193.187 120.045 192.363 120.364 191.639C120.682 190.916 121.102 190.294 121.605 189.789C122.125 189.284 122.696 188.897 123.35 188.611C124.005 188.342 124.676 188.208 125.347 188.208C125.901 188.208 126.421 188.275 126.891 188.426C127.361 188.578 127.78 188.78 128.166 189.015C128.535 189.267 128.871 189.553 129.173 189.873C129.475 190.193 129.744 190.529 129.979 190.882V183.598H131.052V199.731H129.962ZM130.029 194.062C130.029 193.338 129.895 192.682 129.643 192.077C129.391 191.488 129.039 190.966 128.619 190.546C128.2 190.125 127.696 189.806 127.143 189.57C126.589 189.335 126.018 189.217 125.431 189.217C124.81 189.217 124.24 189.335 123.703 189.553C123.166 189.772 122.696 190.092 122.293 190.495C121.891 190.916 121.589 191.421 121.354 192.009C121.119 192.598 121.018 193.288 121.018 194.028V194.079C121.018 194.819 121.135 195.492 121.37 196.097C121.605 196.703 121.924 197.207 122.327 197.628C122.73 198.049 123.199 198.368 123.736 198.604C124.273 198.839 124.844 198.94 125.431 198.94C126.018 198.94 126.589 198.822 127.143 198.587C127.696 198.351 128.183 198.015 128.619 197.594C129.039 197.174 129.391 196.652 129.643 196.064C129.895 195.475 130.029 194.819 130.029 194.095V194.062Z" fill="black"/>
<path d="M145.248 197.847C145.063 198.116 144.828 198.368 144.56 198.637C144.291 198.89 143.973 199.125 143.62 199.327C143.268 199.529 142.865 199.68 142.412 199.815C141.959 199.933 141.472 200 140.952 200C140.415 200 139.895 199.933 139.392 199.781C138.871 199.63 138.418 199.411 137.999 199.125C137.579 198.822 137.261 198.469 136.992 198.015C136.74 197.578 136.606 197.056 136.606 196.467V196.417C136.606 195.828 136.724 195.307 136.975 194.852C137.21 194.398 137.546 194.011 137.982 193.708C138.402 193.406 138.922 193.17 139.526 193.002C140.13 192.834 140.801 192.766 141.54 192.766C142.328 192.766 143.016 192.817 143.587 192.901C144.157 192.985 144.711 193.103 145.265 193.254V192.766C145.265 191.623 144.946 190.765 144.291 190.193C143.637 189.621 142.731 189.335 141.573 189.335C140.885 189.335 140.247 189.419 139.677 189.587C139.106 189.755 138.553 189.974 138.049 190.243L137.647 189.284C138.267 188.981 138.888 188.746 139.526 188.561C140.164 188.376 140.868 188.292 141.64 188.292C143.1 188.292 144.241 188.662 145.08 189.402C145.919 190.142 146.339 191.236 146.339 192.716V199.748H145.248V197.847ZM145.281 194.213C144.812 194.095 144.258 193.978 143.62 193.877C142.983 193.759 142.261 193.708 141.456 193.708C140.264 193.708 139.358 193.944 138.704 194.432C138.066 194.903 137.747 195.542 137.747 196.333V196.383C137.747 196.787 137.831 197.157 138.016 197.477C138.2 197.796 138.435 198.065 138.737 198.284C139.039 198.503 139.392 198.671 139.778 198.789C140.18 198.907 140.583 198.957 141.019 198.957C141.59 198.957 142.144 198.873 142.647 198.705C143.167 198.536 143.62 198.301 144.006 197.998C144.392 197.695 144.711 197.342 144.929 196.905C145.164 196.484 145.265 196.013 145.265 195.492V194.213H145.281Z" fill="black"/>
</svg>
